<?xml version="1.0" encoding="UTF-8"?>
<svg xmlns="http://www.w3.org/2000/svg" xmlns:xlink="http://www.w3.org/1999/xlink" width="83px" height="83px" viewBox="0 0 83 83" version="1.1">
<g id="surface1">
<path style=" stroke:none;fill-rule:nonzero;fill:rgb(25.882353%,64.705882%,96.078431%);fill-opacity:1;" d="M 28.132812 34.253906 L 28.132812 31.144531 C 28.136719 27.136719 31.390625 23.890625 35.40625 23.886719 L 47.875 23.886719 C 51.890625 23.890625 55.144531 27.136719 55.148438 31.144531 L 55.148438 34.253906 Z M 28.132812 34.253906 "/>
<path style=" stroke:none;fill-rule:nonzero;fill:rgb(25.882353%,64.705882%,96.078431%);fill-opacity:1;" d="M 3.191406 65.355469 L 17.738281 65.355469 L 17.738281 79.867188 L 3.191406 79.867188 Z M 3.191406 65.355469 "/>
<path style=" stroke:none;fill-rule:nonzero;fill:rgb(25.882353%,64.705882%,96.078431%);fill-opacity:1;" d="M 65.539062 65.355469 L 80.085938 65.355469 L 80.085938 79.867188 L 65.539062 79.867188 Z M 65.539062 65.355469 "/>
<path style=" stroke:none;fill-rule:nonzero;fill:rgb(56.470588%,79.215686%,97.647059%);fill-opacity:1;" d="M 50.992188 12.484375 C 50.992188 17.636719 46.804688 21.8125 41.640625 21.8125 C 36.476562 21.8125 32.289062 17.636719 32.289062 12.484375 C 32.289062 7.328125 36.476562 3.152344 41.640625 3.152344 C 46.804688 3.152344 50.992188 7.328125 50.992188 12.484375 Z M 50.992188 12.484375 "/>
<path style=" stroke:none;fill-rule:nonzero;fill:rgb(56.470588%,79.215686%,97.647059%);fill-opacity:1;" d="M 34.367188 65.355469 L 48.914062 65.355469 L 48.914062 79.867188 L 34.367188 79.867188 Z M 34.367188 65.355469 "/>
<path style=" stroke:none;fill-rule:nonzero;fill:rgb(9.803922%,46.27451%,82.352941%);fill-opacity:1;" d="M 27.09375 37.363281 L 56.1875 37.363281 C 56.738281 37.363281 57.269531 37.148438 57.660156 36.757812 C 58.050781 36.367188 58.269531 35.839844 58.265625 35.289062 L 58.265625 31.144531 C 58.25 26.460938 55.082031 22.371094 50.546875 21.171875 C 55.34375 16.285156 55.289062 8.457031 50.429688 3.636719 C 45.566406 -1.183594 37.714844 -1.183594 32.851562 3.636719 C 27.988281 8.457031 27.9375 16.285156 32.734375 21.171875 C 28.195312 22.371094 25.03125 26.460938 25.015625 31.144531 L 25.015625 35.289062 C 25.011719 35.839844 25.230469 36.367188 25.621094 36.757812 C 26.011719 37.148438 26.539062 37.363281 27.09375 37.363281 Z M 41.640625 4.1875 C 46.230469 4.1875 49.953125 7.902344 49.953125 12.484375 C 49.953125 17.0625 46.230469 20.777344 41.640625 20.777344 C 37.050781 20.777344 33.328125 17.0625 33.328125 12.484375 C 33.332031 7.90625 37.050781 4.195312 41.640625 4.1875 Z M 29.171875 31.144531 C 29.171875 27.710938 31.964844 24.925781 35.40625 24.921875 L 47.875 24.921875 C 51.316406 24.925781 54.105469 27.710938 54.109375 31.144531 L 54.109375 33.21875 L 29.171875 33.21875 Z M 29.171875 31.144531 "/>
<path style=" stroke:none;fill-rule:nonzero;fill:rgb(9.803922%,46.27451%,82.352941%);fill-opacity:1;" d="M 18.78125 62.242188 L 2.152344 62.242188 C 1.601562 62.242188 1.070312 62.460938 0.683594 62.847656 C 0.292969 63.238281 0.0742188 63.765625 0.0742188 64.316406 L 0.0742188 80.90625 C 0.0742188 81.453125 0.292969 81.984375 0.683594 82.371094 C 1.070312 82.761719 1.601562 82.980469 2.152344 82.976562 L 18.78125 82.976562 C 19.332031 82.980469 19.859375 82.761719 20.25 82.371094 C 20.640625 81.984375 20.859375 81.453125 20.855469 80.90625 L 20.855469 64.316406 C 20.859375 63.765625 20.640625 63.238281 20.25 62.847656 C 19.859375 62.460938 19.332031 62.242188 18.78125 62.242188 Z M 16.699219 78.832031 L 4.230469 78.832031 L 4.230469 66.390625 L 16.699219 66.390625 Z M 16.699219 78.832031 "/>
<path style=" stroke:none;fill-rule:nonzero;fill:rgb(9.803922%,46.27451%,82.352941%);fill-opacity:1;" d="M 81.128906 62.242188 L 64.5 62.242188 C 63.949219 62.242188 63.417969 62.460938 63.03125 62.847656 C 62.640625 63.238281 62.421875 63.765625 62.421875 64.316406 L 62.421875 80.90625 C 62.421875 81.453125 62.640625 81.984375 63.03125 82.371094 C 63.417969 82.761719 63.949219 82.980469 64.5 82.976562 L 81.128906 82.976562 C 81.679688 82.980469 82.207031 82.761719 82.597656 82.371094 C 82.988281 81.984375 83.207031 81.453125 83.203125 80.90625 L 83.203125 64.316406 C 83.207031 63.765625 82.988281 63.238281 82.597656 62.847656 C 82.207031 62.460938 81.679688 62.242188 81.128906 62.242188 Z M 79.046875 78.832031 L 66.578125 78.832031 L 66.578125 66.390625 L 79.046875 66.390625 Z M 79.046875 78.832031 "/>
<path style=" stroke:none;fill-rule:nonzero;fill:rgb(9.803922%,46.27451%,82.352941%);fill-opacity:1;" d="M 10.464844 58.097656 C 11.015625 58.097656 11.546875 57.878906 11.9375 57.488281 C 12.328125 57.101562 12.542969 56.574219 12.542969 56.023438 L 12.542969 51.878906 L 39.5625 51.878906 L 39.5625 56.023438 C 39.5625 57.167969 40.492188 58.097656 41.640625 58.097656 C 42.789062 58.097656 43.71875 57.167969 43.71875 56.023438 L 43.71875 51.878906 L 70.734375 51.878906 L 70.734375 56.023438 C 70.734375 57.167969 71.667969 58.097656 72.8125 58.097656 C 73.960938 58.097656 74.890625 57.167969 74.890625 56.023438 L 74.890625 49.804688 C 74.890625 49.253906 74.671875 48.726562 74.285156 48.335938 C 73.894531 47.949219 73.363281 47.730469 72.8125 47.730469 L 43.71875 47.730469 L 43.71875 43.582031 C 43.71875 42.4375 42.789062 41.511719 41.640625 41.511719 C 40.492188 41.511719 39.5625 42.4375 39.5625 43.582031 L 39.5625 47.730469 L 10.464844 47.730469 C 9.914062 47.730469 9.386719 47.949219 8.996094 48.335938 C 8.605469 48.726562 8.386719 49.253906 8.386719 49.804688 L 8.386719 56.023438 C 8.386719 56.574219 8.605469 57.101562 8.996094 57.488281 C 9.386719 57.878906 9.914062 58.097656 10.464844 58.097656 Z M 10.464844 58.097656 "/>
<path style=" stroke:none;fill-rule:nonzero;fill:rgb(9.803922%,46.27451%,82.352941%);fill-opacity:1;" d="M 49.953125 62.242188 L 33.328125 62.242188 C 32.773438 62.242188 32.246094 62.460938 31.855469 62.847656 C 31.464844 63.238281 31.246094 63.765625 31.25 64.316406 L 31.25 80.90625 C 31.246094 81.453125 31.464844 81.984375 31.855469 82.371094 C 32.246094 82.761719 32.773438 82.980469 33.328125 82.976562 L 49.953125 82.976562 C 50.503906 82.980469 51.035156 82.761719 51.425781 82.371094 C 51.816406 81.984375 52.035156 81.453125 52.03125 80.90625 L 52.03125 64.316406 C 52.035156 63.765625 51.816406 63.238281 51.425781 62.847656 C 51.035156 62.460938 50.503906 62.242188 49.953125 62.242188 Z M 47.875 78.832031 L 35.40625 78.832031 L 35.40625 66.390625 L 47.875 66.390625 Z M 47.875 78.832031 "/>
</g>
</svg>
