<?xml version="1.0" encoding="UTF-8"?>
<svg xmlns="http://www.w3.org/2000/svg" xmlns:xlink="http://www.w3.org/1999/xlink" width="83px" height="83px" viewBox="0 0 83 83" version="1.1">
<g id="surface1">
<path style=" stroke:none;fill-rule:nonzero;fill:rgb(15.686275%,52.156863%,93.333333%);fill-opacity:1;" d="M 83 4.292969 L 83 54.378906 L 81.570312 55.808594 L 1.429688 55.808594 L 0 54.378906 L 0 4.292969 C 0 1.921875 1.921875 0 4.292969 0 L 78.707031 0 C 81.078125 0 83 1.921875 83 4.292969 Z M 83 4.292969 "/>
<path style=" stroke:none;fill-rule:nonzero;fill:rgb(73.333333%,75.686275%,80.784314%);fill-opacity:1;" d="M 25.757812 64.398438 L 57.242188 64.398438 L 57.242188 72.984375 L 25.757812 72.984375 Z M 25.757812 64.398438 "/>
<path style=" stroke:none;fill-rule:nonzero;fill:rgb(84.705882%,86.666667%,89.803922%);fill-opacity:1;" d="M 67.257812 77.277344 L 57.242188 71.550781 L 25.757812 71.550781 L 15.742188 77.277344 L 17.171875 78.707031 L 65.828125 78.707031 Z M 67.257812 77.277344 "/>
<path style=" stroke:none;fill-rule:nonzero;fill:rgb(73.333333%,75.686275%,80.784314%);fill-opacity:1;" d="M 15.742188 77.277344 L 67.257812 77.277344 L 67.257812 81.570312 C 67.257812 82.359375 66.617188 83 65.828125 83 L 17.171875 83 C 16.382812 83 15.742188 82.359375 15.742188 81.570312 Z M 15.742188 77.277344 "/>
<path style=" stroke:none;fill-rule:nonzero;fill:rgb(84.705882%,86.666667%,89.803922%);fill-opacity:1;" d="M 83 54.378906 L 83 61.535156 C 83 63.90625 81.078125 65.828125 78.707031 65.828125 L 4.292969 65.828125 C 1.921875 65.828125 0 63.90625 0 61.535156 L 0 54.378906 Z M 83 54.378906 "/>
<path style=" stroke:none;fill-rule:nonzero;fill:rgb(54.509804%,57.647059%,63.529412%);fill-opacity:1;" d="M 44.363281 61.535156 L 38.636719 61.535156 C 37.847656 61.535156 37.207031 60.894531 37.207031 60.101562 C 37.207031 59.3125 37.847656 58.671875 38.636719 58.671875 L 44.363281 58.671875 C 45.152344 58.671875 45.792969 59.3125 45.792969 60.101562 C 45.792969 60.894531 45.152344 61.535156 44.363281 61.535156 Z M 44.363281 61.535156 "/>
<path style=" stroke:none;fill-rule:nonzero;fill:rgb(94.901961%,95.686275%,96.862745%);fill-opacity:1;" d="M 14.308594 8.585938 L 5.722656 8.585938 C 4.933594 8.585938 4.292969 7.945312 4.292969 7.15625 C 4.292969 6.363281 4.933594 5.722656 5.722656 5.722656 L 14.308594 5.722656 C 15.101562 5.722656 15.742188 6.363281 15.742188 7.15625 C 15.742188 7.945312 15.101562 8.585938 14.308594 8.585938 Z M 14.308594 8.585938 "/>
<path style=" stroke:none;fill-rule:nonzero;fill:rgb(94.901961%,53.72549%,79.215686%);fill-opacity:1;" d="M 62.964844 8.585938 L 42.929688 8.585938 C 42.140625 8.585938 41.5 7.945312 41.5 7.15625 C 41.5 6.363281 42.140625 5.722656 42.929688 5.722656 L 62.964844 5.722656 C 63.753906 5.722656 64.398438 6.363281 64.398438 7.15625 C 64.398438 7.945312 63.753906 8.585938 62.964844 8.585938 Z M 62.964844 8.585938 "/>
<path style=" stroke:none;fill-rule:nonzero;fill:rgb(100%,80.392157%,32.941176%);fill-opacity:1;" d="M 25.757812 8.585938 L 20.035156 8.585938 C 19.246094 8.585938 18.601562 7.945312 18.601562 7.15625 C 18.601562 6.363281 19.246094 5.722656 20.035156 5.722656 L 25.757812 5.722656 C 26.550781 5.722656 27.191406 6.363281 27.191406 7.15625 C 27.191406 7.945312 26.550781 8.585938 25.757812 8.585938 Z M 25.757812 8.585938 "/>
<path style=" stroke:none;fill-rule:nonzero;fill:rgb(67.058824%,87.058824%,38.431373%);fill-opacity:1;" d="M 37.207031 8.585938 L 31.484375 8.585938 C 30.691406 8.585938 30.050781 7.945312 30.050781 7.15625 C 30.050781 6.363281 30.691406 5.722656 31.484375 5.722656 L 37.207031 5.722656 C 37.996094 5.722656 38.636719 6.363281 38.636719 7.15625 C 38.636719 7.945312 37.996094 8.585938 37.207031 8.585938 Z M 37.207031 8.585938 "/>
<path style=" stroke:none;fill-rule:nonzero;fill:rgb(94.901961%,95.686275%,96.862745%);fill-opacity:1;" d="M 14.308594 31.484375 L 5.722656 31.484375 C 4.933594 31.484375 4.292969 30.84375 4.292969 30.050781 C 4.292969 29.261719 4.933594 28.621094 5.722656 28.621094 L 14.308594 28.621094 C 15.101562 28.621094 15.742188 29.261719 15.742188 30.050781 C 15.742188 30.84375 15.101562 31.484375 14.308594 31.484375 Z M 14.308594 31.484375 "/>
<path style=" stroke:none;fill-rule:nonzero;fill:rgb(94.901961%,53.72549%,79.215686%);fill-opacity:1;" d="M 62.964844 31.484375 L 42.929688 31.484375 C 42.140625 31.484375 41.5 30.84375 41.5 30.050781 C 41.5 29.261719 42.140625 28.621094 42.929688 28.621094 L 62.964844 28.621094 C 63.753906 28.621094 64.398438 29.261719 64.398438 30.050781 C 64.398438 30.84375 63.753906 31.484375 62.964844 31.484375 Z M 62.964844 31.484375 "/>
<path style=" stroke:none;fill-rule:nonzero;fill:rgb(100%,80.392157%,32.941176%);fill-opacity:1;" d="M 25.757812 31.484375 L 20.035156 31.484375 C 19.246094 31.484375 18.601562 30.84375 18.601562 30.050781 C 18.601562 29.261719 19.246094 28.621094 20.035156 28.621094 L 25.757812 28.621094 C 26.550781 28.621094 27.191406 29.261719 27.191406 30.050781 C 27.191406 30.84375 26.550781 31.484375 25.757812 31.484375 Z M 25.757812 31.484375 "/>
<path style=" stroke:none;fill-rule:nonzero;fill:rgb(67.058824%,87.058824%,38.431373%);fill-opacity:1;" d="M 37.207031 31.484375 L 31.484375 31.484375 C 30.691406 31.484375 30.050781 30.84375 30.050781 30.050781 C 30.050781 29.261719 30.691406 28.621094 31.484375 28.621094 L 37.207031 28.621094 C 37.996094 28.621094 38.636719 29.261719 38.636719 30.050781 C 38.636719 30.84375 37.996094 31.484375 37.207031 31.484375 Z M 37.207031 31.484375 "/>
<path style=" stroke:none;fill-rule:nonzero;fill:rgb(94.901961%,95.686275%,96.862745%);fill-opacity:1;" d="M 14.308594 14.308594 L 5.722656 14.308594 C 4.933594 14.308594 4.292969 13.667969 4.292969 12.878906 C 4.292969 12.089844 4.933594 11.449219 5.722656 11.449219 L 14.308594 11.449219 C 15.101562 11.449219 15.742188 12.089844 15.742188 12.878906 C 15.742188 13.667969 15.101562 14.308594 14.308594 14.308594 Z M 14.308594 14.308594 "/>
<path style=" stroke:none;fill-rule:nonzero;fill:rgb(94.901961%,53.72549%,79.215686%);fill-opacity:1;" d="M 45.792969 14.308594 L 37.207031 14.308594 C 36.417969 14.308594 35.777344 13.667969 35.777344 12.878906 C 35.777344 12.089844 36.417969 11.449219 37.207031 11.449219 L 45.792969 11.449219 C 46.582031 11.449219 47.222656 12.089844 47.222656 12.878906 C 47.222656 13.667969 46.582031 14.308594 45.792969 14.308594 Z M 45.792969 14.308594 "/>
<path style=" stroke:none;fill-rule:nonzero;fill:rgb(67.058824%,87.058824%,38.431373%);fill-opacity:1;" d="M 37.207031 25.757812 L 28.621094 25.757812 C 27.832031 25.757812 27.191406 25.117188 27.191406 24.328125 C 27.191406 23.539062 27.832031 22.898438 28.621094 22.898438 L 37.207031 22.898438 C 37.996094 22.898438 38.636719 23.539062 38.636719 24.328125 C 38.636719 25.117188 37.996094 25.757812 37.207031 25.757812 Z M 37.207031 25.757812 "/>
<path style=" stroke:none;fill-rule:nonzero;fill:rgb(100%,80.392157%,32.941176%);fill-opacity:1;" d="M 22.898438 14.308594 L 20.035156 14.308594 C 19.246094 14.308594 18.601562 13.667969 18.601562 12.878906 C 18.601562 12.089844 19.246094 11.449219 20.035156 11.449219 L 22.898438 11.449219 C 23.6875 11.449219 24.328125 12.089844 24.328125 12.878906 C 24.328125 13.667969 23.6875 14.308594 22.898438 14.308594 Z M 22.898438 14.308594 "/>
<path style=" stroke:none;fill-rule:nonzero;fill:rgb(67.058824%,87.058824%,38.431373%);fill-opacity:1;" d="M 31.484375 14.308594 L 28.621094 14.308594 C 27.832031 14.308594 27.191406 13.667969 27.191406 12.878906 C 27.191406 12.089844 27.832031 11.449219 28.621094 11.449219 L 31.484375 11.449219 C 32.273438 11.449219 32.914062 12.089844 32.914062 12.878906 C 32.914062 13.667969 32.273438 14.308594 31.484375 14.308594 Z M 31.484375 14.308594 "/>
<path style=" stroke:none;fill-rule:nonzero;fill:rgb(94.901961%,95.686275%,96.862745%);fill-opacity:1;" d="M 14.308594 37.207031 L 5.722656 37.207031 C 4.933594 37.207031 4.292969 36.566406 4.292969 35.777344 C 4.292969 34.984375 4.933594 34.34375 5.722656 34.34375 L 14.308594 34.34375 C 15.101562 34.34375 15.742188 34.984375 15.742188 35.777344 C 15.742188 36.566406 15.101562 37.207031 14.308594 37.207031 Z M 14.308594 37.207031 "/>
<path style=" stroke:none;fill-rule:nonzero;fill:rgb(94.901961%,53.72549%,79.215686%);fill-opacity:1;" d="M 57.242188 37.207031 L 37.207031 37.207031 C 36.417969 37.207031 35.777344 36.566406 35.777344 35.777344 C 35.777344 34.984375 36.417969 34.34375 37.207031 34.34375 L 57.242188 34.34375 C 58.03125 34.34375 58.671875 34.984375 58.671875 35.777344 C 58.671875 36.566406 58.03125 37.207031 57.242188 37.207031 Z M 57.242188 37.207031 "/>
<path style=" stroke:none;fill-rule:nonzero;fill:rgb(100%,80.392157%,32.941176%);fill-opacity:1;" d="M 22.898438 37.207031 L 20.035156 37.207031 C 19.246094 37.207031 18.601562 36.566406 18.601562 35.777344 C 18.601562 34.984375 19.246094 34.34375 20.035156 34.34375 L 22.898438 34.34375 C 23.6875 34.34375 24.328125 34.984375 24.328125 35.777344 C 24.328125 36.566406 23.6875 37.207031 22.898438 37.207031 Z M 22.898438 37.207031 "/>
<path style=" stroke:none;fill-rule:nonzero;fill:rgb(67.058824%,87.058824%,38.431373%);fill-opacity:1;" d="M 31.484375 37.207031 L 28.621094 37.207031 C 27.832031 37.207031 27.191406 36.566406 27.191406 35.777344 C 27.191406 34.984375 27.832031 34.34375 28.621094 34.34375 L 31.484375 34.34375 C 32.273438 34.34375 32.914062 34.984375 32.914062 35.777344 C 32.914062 36.566406 32.273438 37.207031 31.484375 37.207031 Z M 31.484375 37.207031 "/>
<path style=" stroke:none;fill-rule:nonzero;fill:rgb(94.901961%,95.686275%,96.862745%);fill-opacity:1;" d="M 14.308594 20.035156 L 5.722656 20.035156 C 4.933594 20.035156 4.292969 19.394531 4.292969 18.601562 C 4.292969 17.8125 4.933594 17.171875 5.722656 17.171875 L 14.308594 17.171875 C 15.101562 17.171875 15.742188 17.8125 15.742188 18.601562 C 15.742188 19.394531 15.101562 20.035156 14.308594 20.035156 Z M 14.308594 20.035156 "/>
<path style=" stroke:none;fill-rule:nonzero;fill:rgb(100%,80.392157%,32.941176%);fill-opacity:1;" d="M 22.898438 20.035156 L 20.035156 20.035156 C 19.246094 20.035156 18.601562 19.394531 18.601562 18.601562 C 18.601562 17.8125 19.246094 17.171875 20.035156 17.171875 L 22.898438 17.171875 C 23.6875 17.171875 24.328125 17.8125 24.328125 18.601562 C 24.328125 19.394531 23.6875 20.035156 22.898438 20.035156 Z M 22.898438 20.035156 "/>
<path style=" stroke:none;fill-rule:nonzero;fill:rgb(94.901961%,95.686275%,96.862745%);fill-opacity:1;" d="M 14.308594 25.757812 L 5.722656 25.757812 C 4.933594 25.757812 4.292969 25.117188 4.292969 24.328125 C 4.292969 23.539062 4.933594 22.898438 5.722656 22.898438 L 14.308594 22.898438 C 15.101562 22.898438 15.742188 23.539062 15.742188 24.328125 C 15.742188 25.117188 15.101562 25.757812 14.308594 25.757812 Z M 14.308594 25.757812 "/>
<path style=" stroke:none;fill-rule:nonzero;fill:rgb(100%,80.392157%,32.941176%);fill-opacity:1;" d="M 22.898438 25.757812 L 20.035156 25.757812 C 19.246094 25.757812 18.601562 25.117188 18.601562 24.328125 C 18.601562 23.539062 19.246094 22.898438 20.035156 22.898438 L 22.898438 22.898438 C 23.6875 22.898438 24.328125 23.539062 24.328125 24.328125 C 24.328125 25.117188 23.6875 25.757812 22.898438 25.757812 Z M 22.898438 25.757812 "/>
<path style=" stroke:none;fill-rule:nonzero;fill:rgb(67.058824%,87.058824%,38.431373%);fill-opacity:1;" d="M 37.207031 47.222656 L 28.621094 47.222656 C 27.832031 47.222656 27.191406 46.582031 27.191406 45.792969 C 27.191406 45.003906 27.832031 44.363281 28.621094 44.363281 L 37.207031 44.363281 C 37.996094 44.363281 38.636719 45.003906 38.636719 45.792969 C 38.636719 46.582031 37.996094 47.222656 37.207031 47.222656 Z M 37.207031 47.222656 "/>
<path style=" stroke:none;fill-rule:nonzero;fill:rgb(94.901961%,95.686275%,96.862745%);fill-opacity:1;" d="M 14.308594 47.222656 L 5.722656 47.222656 C 4.933594 47.222656 4.292969 46.582031 4.292969 45.792969 C 4.292969 45.003906 4.933594 44.363281 5.722656 44.363281 L 14.308594 44.363281 C 15.101562 44.363281 15.742188 45.003906 15.742188 45.792969 C 15.742188 46.582031 15.101562 47.222656 14.308594 47.222656 Z M 14.308594 47.222656 "/>
<path style=" stroke:none;fill-rule:nonzero;fill:rgb(100%,80.392157%,32.941176%);fill-opacity:1;" d="M 22.898438 47.222656 L 20.035156 47.222656 C 19.246094 47.222656 18.601562 46.582031 18.601562 45.792969 C 18.601562 45.003906 19.246094 44.363281 20.035156 44.363281 L 22.898438 44.363281 C 23.6875 44.363281 24.328125 45.003906 24.328125 45.792969 C 24.328125 46.582031 23.6875 47.222656 22.898438 47.222656 Z M 22.898438 47.222656 "/>
<path style=" stroke:none;fill-rule:nonzero;fill:rgb(67.058824%,87.058824%,38.431373%);fill-opacity:1;" d="M 31.484375 20.035156 L 28.621094 20.035156 C 27.832031 20.035156 27.191406 19.394531 27.191406 18.601562 C 27.191406 17.8125 27.832031 17.171875 28.621094 17.171875 L 31.484375 17.171875 C 32.273438 17.171875 32.914062 17.8125 32.914062 18.601562 C 32.914062 19.394531 32.273438 20.035156 31.484375 20.035156 Z M 31.484375 20.035156 "/>
<path style=" stroke:none;fill-rule:nonzero;fill:rgb(94.901961%,53.72549%,79.215686%);fill-opacity:1;" d="M 40.070312 20.035156 L 37.207031 20.035156 C 36.417969 20.035156 35.777344 19.394531 35.777344 18.601562 C 35.777344 17.8125 36.417969 17.171875 37.207031 17.171875 L 40.070312 17.171875 C 40.859375 17.171875 41.5 17.8125 41.5 18.601562 C 41.5 19.394531 40.859375 20.035156 40.070312 20.035156 Z M 40.070312 20.035156 "/>
<path style=" stroke:none;fill-rule:nonzero;fill:rgb(94.901961%,95.686275%,96.862745%);fill-opacity:1;" d="M 48.65625 20.035156 L 45.792969 20.035156 C 45.003906 20.035156 44.363281 19.394531 44.363281 18.601562 C 44.363281 17.8125 45.003906 17.171875 45.792969 17.171875 L 48.65625 17.171875 C 49.445312 17.171875 50.085938 17.8125 50.085938 18.601562 C 50.085938 19.394531 49.445312 20.035156 48.65625 20.035156 Z M 48.65625 20.035156 "/>
<path style=" stroke:none;fill-rule:nonzero;fill:rgb(100%,80.392157%,32.941176%);fill-opacity:1;" d="M 57.242188 20.035156 L 54.378906 20.035156 C 53.589844 20.035156 52.949219 19.394531 52.949219 18.601562 C 52.949219 17.8125 53.589844 17.171875 54.378906 17.171875 L 57.242188 17.171875 C 58.03125 17.171875 58.671875 17.8125 58.671875 18.601562 C 58.671875 19.394531 58.03125 20.035156 57.242188 20.035156 Z M 57.242188 20.035156 "/>
<path style=" stroke:none;fill-rule:nonzero;fill:rgb(94.901961%,95.686275%,96.862745%);fill-opacity:1;" d="M 71.550781 31.484375 L 68.691406 31.484375 C 67.898438 31.484375 67.257812 30.84375 67.257812 30.050781 C 67.257812 29.261719 67.898438 28.621094 68.691406 28.621094 L 71.550781 28.621094 C 72.34375 28.621094 72.984375 29.261719 72.984375 30.050781 C 72.984375 30.84375 72.34375 31.484375 71.550781 31.484375 Z M 71.550781 31.484375 "/>
</g>
</svg>
